<svg xmlns="http://www.w3.org/2000/svg" xmlns:xlink="http://www.w3.org/1999/xlink" width="286" height="280.463" viewBox="0 0 286 280.463">
  <defs>
    <filter id="Subtraction_3" x="16" y="160.417" width="199.768" height="120.047" filterUnits="userSpaceOnUse">
      <feOffset dy="3" input="SourceAlpha"/>
      <feGaussianBlur stdDeviation="3" result="blur"/>
      <feFlood flood-opacity="0.161"/>
      <feComposite operator="in" in2="blur"/>
      <feComposite in="SourceGraphic"/>
    </filter>
    <filter id="Subtraction_2" x="58" y="53" width="119" height="169" filterUnits="userSpaceOnUse">
      <feOffset dy="3" input="SourceAlpha"/>
      <feGaussianBlur stdDeviation="3" result="blur-2"/>
      <feFlood flood-opacity="0.161"/>
      <feComposite operator="in" in2="blur-2"/>
      <feComposite in="SourceGraphic"/>
    </filter>
  </defs>
  <g id="Group_4" data-name="Group 4" transform="translate(-616 -522)">
    <g id="Group_3" data-name="Group 3" transform="translate(-24 -11)">
      <g id="Group_2" data-name="Group 2">
        <g id="Rectangle_1" data-name="Rectangle 1" transform="translate(640 581)" fill="#7696c5" stroke="#43dd2b" stroke-linecap="round" stroke-linejoin="round" stroke-width="6">
          <rect width="232" height="232" rx="28" stroke="none"/>
          <rect x="3" y="3" width="226" height="226" rx="25" fill="none"/>
        </g>
        <g id="Group_1" data-name="Group 1" transform="translate(-69 360.161)">
          <g transform="matrix(1, 0, 0, 1, 709, 172.84)" filter="url(#Subtraction_3)">
            <path id="Subtraction_3-2" data-name="Subtraction 3" d="M92.492,102.045h0L0,24.416,41.977,0,38.534,10.083c-1.336,3.911.559,10.292,4.827,16.258A48.885,48.885,0,0,0,62,41.549C71.591,46.231,82.9,48.6,95.6,48.6c11.518,0,21.561-1.97,29.848-5.854a45.245,45.245,0,0,0,9.694-6.091,37.963,37.963,0,0,0,6.658-7.107,30.993,30.993,0,0,0,5.074-10.959,16.2,16.2,0,0,0-.013-8.51L143.441.071l38.328,24.345L92.493,102.045Z" transform="translate(25 166.42)" fill="#fff"/>
          </g>
          <g transform="matrix(1, 0, 0, 1, 709, 172.84)" filter="url(#Subtraction_2)">
            <path id="Subtraction_2-2" data-name="Subtraction 2" d="M53.111,151c-11.775,0-22.249-2.194-31.13-6.521A45,45,0,0,1,4.769,130.445C.885,125-.835,119.186.389,115.625L36.867,9.452a13.672,13.672,0,0,1,5.456-7.089,15.093,15.093,0,0,1,16.216,0A13.673,13.673,0,0,1,64,9.452l36.477,106.173a14.753,14.753,0,0,1,.022,7.769,28.312,28.312,0,0,1-4.627,10.01,34.887,34.887,0,0,1-6.14,6.559,41.753,41.753,0,0,1-8.962,5.626C73.095,149.179,63.79,151,53.111,151ZM28.49,90.225l-3.452,22.306a61.187,61.187,0,0,0,8,3.926c4.387,1.791,11.021,3.926,17.71,3.926s13.424-2.135,17.9-3.926a64.38,64.38,0,0,0,8.186-3.926L73.376,90.225a14.369,14.369,0,0,1-4.606,1.982c-3.121.9-8.782,1.982-18.025,1.982s-14.8-1.078-17.838-1.982A12.547,12.547,0,0,1,28.49,90.225ZM50.933,26.75a1.986,1.986,0,0,0-1.8,1.129L41.1,44.455a2,2,0,0,0,1.8,2.872H58.964a2,2,0,0,0,1.8-2.872L52.733,27.878A1.986,1.986,0,0,0,50.933,26.75Z" transform="translate(67 59)" fill="#fff"/>
          </g>
        </g>
      </g>
    </g>
    <text id="_" data-name="" transform="translate(775 647)" fill="#43dd2b" stroke="#7696c5" stroke-width="6" font-size="136" font-family="FontAwesome6Free-Solid, 'Font Awesome \36  Free Solid'"><tspan x="0" y="0"></tspan></text>
  </g>
</svg>
