<svg xmlns="http://www.w3.org/2000/svg" width="277.772" height="238.493" viewBox="0 0 277.772 238.493">
  <g id="Group_10" data-name="Group 10" transform="translate(-548 -393)">
    <g id="Rectangle_1" data-name="Rectangle 1" transform="translate(548 399.493)" fill="#7696c5" stroke="#43dd2b" stroke-linecap="round" stroke-linejoin="round" stroke-width="6">
      <rect width="232" height="232" rx="28" stroke="none"/>
      <rect x="3" y="3" width="226" height="226" rx="25" fill="none"/>
    </g>
    <g id="Group_8" data-name="Group 8" transform="translate(19)">
      <path id="Path_9" data-name="Path 9" d="M30.754,7.3c7.314-9.154,24-31.339,24-43.8A27.382,27.382,0,0,0,27.375-63.875,27.382,27.382,0,0,0,0-36.5C0-24.039,16.682-1.854,24,7.3a4.308,4.308,0,0,0,6.758,0ZM27.375-45.625a9.125,9.125,0,0,1,7.9,4.563,9.125,9.125,0,0,1,0,9.125,9.125,9.125,0,0,1-7.9,4.563,9.125,9.125,0,0,1-7.9-4.562,9.125,9.125,0,0,1,0-9.125A9.125,9.125,0,0,1,27.375-45.625Z" transform="translate(664 487)" fill="#fff"/>
      <path id="Path_8" data-name="Path 8" d="M43.393,10.3C53.713-2.615,77.25-33.918,77.25-51.5A38.635,38.635,0,0,0,38.625-90.125,38.635,38.635,0,0,0,0-51.5C0-33.918,23.537-2.615,33.857,10.3a6.078,6.078,0,0,0,9.536,0ZM38.625-64.375a12.875,12.875,0,0,1,11.15,6.438,12.875,12.875,0,0,1,0,12.875,12.875,12.875,0,0,1-11.15,6.438,12.875,12.875,0,0,1-11.15-6.437,12.875,12.875,0,0,1,0-12.875A12.875,12.875,0,0,1,38.625-64.375Z" transform="translate(570 587)" fill="#fff"/>
      <path id="Path_7" data-name="Path 7" d="M711.475,814.341s90.944,21.2,90.944-15.308-54.388-20.956-56.46-52.728,40.4-31.1,40.4-31.1" transform="matrix(0.999, -0.035, 0.035, 0.999, -109.767, -206.978)" fill="none" stroke="#fff" stroke-width="6" stroke-dasharray="8"/>
    </g>
    <path id="Path_6" data-name="Path 6" d="M116.5-91a8.513,8.513,0,0,1,0,12.033l-68,68a8.513,8.513,0,0,1-12.033,0l-34-34A8.513,8.513,0,0,1,2.47-57,8.513,8.513,0,0,1,14.5-57l28,27.97L104.5-91a8.513,8.513,0,0,1,12.033,0Z" transform="translate(702 489.493)" fill="#43dd2b" stroke="#7696c5" stroke-width="6"/>
  </g>
</svg>
