<svg xmlns="http://www.w3.org/2000/svg" width="277.772" height="239" viewBox="0 0 277.772 239">
  <g id="Group_18" data-name="Group 18" transform="translate(-541 -858.013)">
    <g id="Rectangle_1" data-name="Rectangle 1" transform="translate(541 865.013)" fill="#7696c5" stroke="#43dd2b" stroke-linecap="round" stroke-linejoin="round" stroke-width="6">
      <rect width="232" height="232" rx="28" stroke="none"/>
      <rect x="3" y="3" width="226" height="226" rx="25" fill="none"/>
    </g>
    <path id="Path_22" data-name="Path 22" d="M16.185-63.875a5.389,5.389,0,0,0-5.4,5.395v16.185H21.58V-58.48A5.389,5.389,0,0,0,16.185-63.875Zm32.37,0a5.389,5.389,0,0,0-5.4,5.395v16.185H53.95V-58.48A5.389,5.389,0,0,0,48.555-63.875ZM5.4-36.9A5.389,5.389,0,0,0,0-31.5a5.389,5.389,0,0,0,5.4,5.4v5.4A26.987,26.987,0,0,0,26.975,5.721V17.05a5.4,5.4,0,1,0,10.79,0V5.721a26.987,26.987,0,0,0,21.58-26.436v-5.4a5.389,5.389,0,0,0,5.4-5.4,5.389,5.389,0,0,0-5.4-5.4Z" transform="translate(580 943.568)" fill="#fff"/>
    <path id="Path_24" data-name="Path 24" d="M0-30.518V-1.439A4.841,4.841,0,0,0,4.846,3.407h9.693V-13.555a2.43,2.43,0,0,1,2.423-2.423,2.43,2.43,0,0,1,2.423,2.423V3.407h9.693V-13.555A2.43,2.43,0,0,1,31.5-15.978a2.43,2.43,0,0,1,2.423,2.423V3.407h9.693V-13.555a2.43,2.43,0,0,1,2.423-2.423,2.43,2.43,0,0,1,2.423,2.423V3.407h9.693V-13.555a2.43,2.43,0,0,1,2.423-2.423A2.43,2.43,0,0,1,63-13.555V3.407H72.7a4.841,4.841,0,0,0,4.846-4.846V-30.518A4.841,4.841,0,0,0,72.7-35.364H67.85v-4.846A4.841,4.841,0,0,0,63-45.057H58.157V-49.9a4.841,4.841,0,0,0-4.846-4.846H24.232A4.841,4.841,0,0,0,19.386-49.9v4.846H14.539a4.841,4.841,0,0,0-4.846,4.846v4.846H4.846A4.841,4.841,0,0,0,0-30.518Z" transform="translate(657 1071.671)" fill="#fff"/>
    <rect id="Rectangle_13" data-name="Rectangle 13" width="13" height="146" transform="translate(606 945)" fill="#fff"/>
    <rect id="Rectangle_14" data-name="Rectangle 14" width="13" height="146" transform="translate(689 871)" fill="#fff"/>
    <path id="Path_6" data-name="Path 6" d="M116.5-91a8.513,8.513,0,0,1,0,12.033l-68,68a8.513,8.513,0,0,1-12.033,0l-34-34A8.513,8.513,0,0,1,2.47-57,8.513,8.513,0,0,1,14.5-57l28,27.97L104.5-91a8.513,8.513,0,0,1,12.033,0Z" transform="translate(695 954.507)" fill="#43dd2b" stroke="#7696c5" stroke-width="6"/>
  </g>
</svg>
