<svg xmlns="http://www.w3.org/2000/svg" width="277.772" height="239" viewBox="0 0 277.772 239">
  <g id="Group_17" data-name="Group 17" transform="translate(-1035 -582.507)">
    <rect id="Rectangle_1" data-name="Rectangle 1" width="232" height="232" rx="28" transform="translate(1035 589.507)" fill="#7696c5"/>
    <g id="Group_15" data-name="Group 15" transform="translate(210.193 -95.15)">
      <rect id="Rectangle_6" data-name="Rectangle 6" width="21" height="15" transform="translate(986 783)" fill="#fff"/>
      <path id="Rectangle_5" data-name="Rectangle 5" d="M6,0h8a3,3,0,0,1,3,3V75a3,3,0,0,1-3,3H6a6,6,0,0,1-6-6V6A6,6,0,0,1,6,0Z" transform="translate(977 737)" fill="#fff"/>
      <path id="Subtraction_6" data-name="Subtraction 6" d="M20,78H3a3,3,0,0,1-3-3V34.191a8.568,8.568,0,0,0,7.667-8.509A8.569,8.569,0,0,0,0,17.174V3A3,3,0,0,1,3,0H20a3,3,0,0,1,3,3V75A3,3,0,0,1,20,78Z" transform="translate(998 737)" fill="#fff"/>
      <path id="Path_14" data-name="Path 14" d="M425.077,779.481s1.571,33.618,0,33.618-57.338,7.54-57.338,7.54l2.985-27.177h10.211L388,804.3l28.119-10.839V779.481Z" transform="translate(544.119 -29.711)" fill="#fff"/>
      <path id="Path_15" data-name="Path 15" d="M22.307,0,17.751,10.211H0L7.383,0Z" transform="translate(911.857 794.086) rotate(-8)" fill="#fff"/>
      <path id="Path_16" data-name="Path 16" d="M378.76,788.679l22.307-7.541v7.541l-22.307,8.483Z" transform="translate(553.99 -28.227)" fill="#fff"/>
      <path id="Subtraction_7" data-name="Subtraction 7" d="M45.321,106.565h0L0,102.6,8.389,6.706a8,8,0,0,1,7.96-7.3c.234,0,.472.01.707.031L46.438,2a8,8,0,0,1,7.272,8.667l-8.389,95.892ZM31.256,6.931a4.767,4.767,0,0,0-4.714,4.327l-7.25,82.867A4.739,4.739,0,0,0,23.6,99.258c.133.012.274.018.419.018a4.768,4.768,0,0,0,4.715-4.326l7.25-82.868a4.738,4.738,0,0,0-4.308-5.134C31.536,6.937,31.4,6.931,31.256,6.931ZM43.44,9.094h0a4.77,4.77,0,0,0-4.717,4.327l-4.46,50.987a4.738,4.738,0,0,0,4.307,5.134c.133.012.274.018.419.018A4.768,4.768,0,0,0,43.7,65.235l4.46-50.987a4.738,4.738,0,0,0-4.307-5.135c-.139-.012-.279-.018-.417-.018h0ZM18.424,6.307h0a4.767,4.767,0,0,0-4.714,4.326L9.247,61.62a4.746,4.746,0,0,0,4.308,5.135c.133.012.274.018.418.018a4.767,4.767,0,0,0,4.716-4.326L23.151,11.46a4.744,4.744,0,0,0-4.308-5.134c-.139-.012-.28-.018-.418-.018h0Z" transform="translate(860.808 723.76)" fill="#fff"/>
      <path id="Union_1" data-name="Union 1" d="M18.953,15.172c-5.43-.1-10.168-1.606-12.809-3.8H0V0H37.912V11.374H32.424c-2.508,2.281-7.353,3.8-12.936,3.8C19.309,15.177,19.132,15.175,18.953,15.172Z" transform="translate(864.254 830.466) rotate(5)" fill="#fff"/>
      <path id="Path_17" data-name="Path 17" d="M0,0V26.539" transform="translate(881.36 852.442) rotate(5)" fill="none" stroke="#fff" stroke-linecap="round" stroke-width="4"/>
      <path id="Path_18" data-name="Path 18" d="M623.826,772.657l10.283-9.026" transform="translate(261.659 109.391)" fill="none" stroke="#fff" stroke-width="1"/>
      <path id="Path_19" data-name="Path 19" d="M0,9.026,10.283,0" transform="matrix(-0.259, -0.966, 0.966, -0.259, 864.307, 881.499)" fill="none" stroke="#fff" stroke-width="1"/>
      <path id="Path_20" data-name="Path 20" d="M0,5.881,8.1,0" transform="translate(888.159 880.604) rotate(20)" fill="none" stroke="#fff" stroke-width="1"/>
      <path id="Path_21" data-name="Path 21" d="M0,7.213,7.017,0" transform="translate(865.673 888.392) rotate(-120)" fill="none" stroke="#fff" stroke-width="1"/>
    </g>
    <path id="Path_6" data-name="Path 6" d="M116.5-91a8.513,8.513,0,0,1,0,12.033l-68,68a8.513,8.513,0,0,1-12.033,0l-34-34A8.513,8.513,0,0,1,2.47-57,8.513,8.513,0,0,1,14.5-57l28,27.97L104.5-91a8.513,8.513,0,0,1,12.033,0Z" transform="translate(1189 679)" fill="#43dd2b" stroke="#7696c5" stroke-width="6" opacity="0"/>
  </g>
</svg>
