<svg xmlns="http://www.w3.org/2000/svg" width="277.772" height="239" viewBox="0 0 277.772 239">
  <g id="Group_27" data-name="Group 27" transform="translate(-541 -1409.027)">
    <g id="Rectangle_1" data-name="Rectangle 1" transform="translate(541 1416.027)" fill="#7696c5" stroke="#43dd2b" stroke-linecap="round" stroke-linejoin="round" stroke-width="6">
      <rect width="232" height="232" rx="28" stroke="none"/>
      <rect x="3" y="3" width="226" height="226" rx="25" fill="none"/>
    </g>
    <path id="Path_6" data-name="Path 6" d="M116.5-91a8.513,8.513,0,0,1,0,12.033l-68,68a8.513,8.513,0,0,1-12.033,0l-34-34A8.513,8.513,0,0,1,2.47-57,8.513,8.513,0,0,1,14.5-57l28,27.97L104.5-91a8.513,8.513,0,0,1,12.033,0Z" transform="translate(695 1505.52)" fill="#43dd2b" stroke="#7696c5" stroke-width="6"/>
    <path id="Subtraction_12" data-name="Subtraction 12" d="M79,188H0V177H79v11Zm0-19H0V157H79v12Zm0-20H0V137H79v12Zm0-20H0V117H79v12Zm0-20H0V97H79v12Zm0-20H0V77H79V89Zm0-20H0V57H79V69Zm0-20H0V37H79V49Zm0-20H0V23a23.069,23.069,0,0,1,.791-6H78.209A23.067,23.067,0,0,1,79,23v6ZM74.249,9H4.751a23.216,23.216,0,0,1,7.913-6.552A22.76,22.76,0,0,1,23,0H56A22.76,22.76,0,0,1,66.336,2.448,23.217,23.217,0,0,1,74.248,9V9h0Z" transform="translate(618 1438)" fill="#fff"/>
    <path id="Rectangle_34" data-name="Rectangle 34" d="M12,0H114a12,12,0,0,1,12,12V35a0,0,0,0,1,0,0H0a0,0,0,0,1,0,0V12A12,12,0,0,1,12,0Z" transform="translate(594 1488)" fill="#fff"/>
    <g id="Rectangle_35" data-name="Rectangle 35" transform="translate(621 1488)" fill="none" stroke="#7696c5" stroke-width="1">
      <rect width="2" height="35" stroke="none"/>
      <rect x="0.5" y="0.5" width="1" height="34" fill="none"/>
    </g>
    <g id="Rectangle_36" data-name="Rectangle 36" transform="translate(691 1488)" fill="none" stroke="#7696c5" stroke-width="1">
      <rect width="2" height="35" stroke="none"/>
      <rect x="0.5" y="0.5" width="1" height="34" fill="none"/>
    </g>
  </g>
</svg>
