<svg xmlns="http://www.w3.org/2000/svg" width="990" height="466" viewBox="0 0 990 466">
  <g id="Subtraction_3" data-name="Subtraction 3" transform="translate(0 0)" fill="#fff">
    <path d="M 946 465.500244140625 L 44.00012588500977 465.500244140625 C 38.12912368774414 465.500244140625 32.43237686157227 464.35009765625 27.06787490844727 462.0819702148438 C 21.88812446594238 459.8903503417969 17.23587417602539 456.7538452148438 13.24062538146973 452.7594909667969 C 9.244750022888184 448.7636108398438 6.108250141143799 444.1114807128906 3.91825008392334 438.9323425292969 C 1.650125026702881 433.5671081542969 0.5 427.8702392578125 0.5 422.0001220703125 L 0.5 44.00010681152344 C 0.5 38.12998199462891 1.650125026702881 32.43310546875 3.91825008392334 27.06785774230957 C 6.109000205993652 21.88810729980469 9.245499610900879 17.2358570098877 13.24062538146973 13.24060726165771 C 17.2346248626709 9.246731758117676 21.88674926757812 6.110231876373291 27.06787490844727 3.918356895446777 C 32.43287658691406 1.65010678768158 38.12962341308594 0.4999818205833435 44.00012588500977 0.4999818205833435 L 946 0.4999818205833435 C 951.8712768554688 0.4999818205833435 957.568115234375 1.65010678768158 962.9322509765625 3.918356895446777 C 968.110595703125 6.108481884002686 972.7627563476562 9.24498176574707 976.7593994140625 13.24073219299316 C 980.754638671875 17.2358570098877 983.89111328125 21.88798141479492 986.0817260742188 27.06785774230957 C 988.349853515625 32.43198013305664 989.5 38.12873077392578 989.5 44.00010681152344 L 989.5 422.0001220703125 C 989.5 427.87060546875 988.349853515625 433.5674743652344 986.0817260742188 438.9323425292969 C 983.89111328125 444.1113586425781 980.754638671875 448.7634887695312 976.75927734375 452.7596130371094 C 972.7640991210938 456.7541198730469 968.1119995117188 459.8905944824219 962.93212890625 462.0819702148438 C 957.5677490234375 464.35009765625 951.8709716796875 465.500244140625 946 465.500244140625 Z M 840.5001220703125 422.4999694824219 C 835.9564819335938 422.4999694824219 831.6856079101562 424.3222351074219 828.474365234375 427.631103515625 C 825.266845703125 430.9358520507812 823.50048828125 435.3284912109375 823.50048828125 440.0001220703125 C 823.50048828125 444.6717224121094 825.266845703125 449.0644836425781 828.474365234375 452.3692321777344 C 831.6857299804688 455.677978515625 835.9566040039062 457.500244140625 840.5001220703125 457.500244140625 C 845.0436401367188 457.500244140625 849.3145141601562 455.677978515625 852.52587890625 452.3692321777344 C 855.7333984375 449.0646057128906 857.4998779296875 444.6718444824219 857.4998779296875 440.0001220703125 C 857.4998779296875 435.3284912109375 855.7333984375 430.9357299804688 852.52587890625 427.631103515625 C 849.3146362304688 424.3222351074219 845.0437622070312 422.4999694824219 840.5001220703125 422.4999694824219 Z M 149.4998779296875 422.4999694824219 C 144.9562530517578 422.4999694824219 140.6853790283203 424.3222351074219 137.47412109375 427.631103515625 C 134.2666320800781 430.9358520507812 132.500244140625 435.3284912109375 132.500244140625 440.0001220703125 C 132.500244140625 444.6717224121094 134.2666320800781 449.0644836425781 137.47412109375 452.3692321777344 C 140.6855010986328 455.677978515625 144.9563751220703 457.500244140625 149.4998779296875 457.500244140625 C 154.0436248779297 457.500244140625 158.3146209716797 455.677978515625 161.526123046875 452.3692321777344 C 164.7338714599609 449.0646057128906 166.5005035400391 444.6718444824219 166.5005035400391 440.0001220703125 C 166.5005035400391 435.3284912109375 164.7338714599609 430.9357299804688 161.526123046875 427.631103515625 C 158.3146209716797 424.3222351074219 154.0436248779297 422.4999694824219 149.4998779296875 422.4999694824219 Z M 826.7940063476562 410.5003662109375 L 853.7130126953125 410.5003662109375 C 857.797607421875 410.5003662109375 859.626220703125 411.0128479003906 861.2386474609375 412.609619140625 C 863.0196533203125 414.3732299804688 864.58740234375 417.6573486328125 867.1848754882812 423.0984802246094 C 867.4880981445312 423.7338562011719 867.8048706054688 424.3973693847656 868.1382446289062 425.0926208496094 C 870.589599609375 430.2062377929688 872.9403686523438 437.6148681640625 875.12548828125 447.1124877929688 L 875.2147216796875 447.5003662109375 L 875.6127319335938 447.5003662109375 L 928 447.5003662109375 C 934.0059814453125 447.5003662109375 939.8338623046875 446.32373046875 945.32177734375 444.0029907226562 C 950.6215209960938 441.7607421875 955.38037109375 438.5519714355469 959.4663696289062 434.4658508300781 C 963.552490234375 430.3807373046875 966.760986328125 425.6221008300781 969.0027465820312 420.3219909667969 C 971.3233642578125 414.8332214355469 972.5 409.00537109375 972.5 403.000244140625 L 972.5 63.99985504150391 C 972.5 57.99473190307617 971.3233642578125 52.1668586730957 969.0027465820312 46.67810821533203 C 966.7606201171875 41.37773132324219 963.5521240234375 36.61898040771484 959.4663696289062 32.53423309326172 C 955.3798828125 28.44773101806641 950.620849609375 25.23898124694824 945.3218994140625 22.99710655212402 C 939.8338623046875 20.67648124694824 934.0059814453125 19.49985694885254 928 19.49985694885254 L 834.9705200195312 19.49985694885254 L 834.48486328125 19.49985694885254 L 834.4707641601562 19.98523139953613 C 834.21435546875 28.74823188781738 832.2775268554688 37.22248077392578 828.7137451171875 45.172607421875 C 826.9979858398438 49.00060653686523 824.9032592773438 52.68848037719727 822.4876098632812 56.13398361206055 C 820.0948486328125 59.54698181152344 817.3621215820312 62.75560760498047 814.3656005859375 65.67098236083984 C 811.3712768554688 68.583984375 808.0864868164062 71.22798156738281 804.6024780273438 73.52947998046875 C 801.087890625 75.85135650634766 797.3364868164062 77.84510803222656 793.452880859375 79.45548248291016 C 785.3795166015625 82.80248260498047 776.8158569335938 84.49960327148438 767.999755859375 84.49960327148438 L 223.000244140625 84.49960327148438 C 214.1841278076172 84.49960327148438 205.6204986572266 82.80248260498047 197.547119140625 79.45548248291016 C 193.6662445068359 77.84635925292969 189.9149932861328 75.85260772705078 186.3973693847656 73.52947998046875 C 182.9137573242188 71.22823333740234 179.6289978027344 68.584228515625 176.6343688964844 65.67098236083984 C 173.6385040283203 62.75635528564453 170.9057464599609 59.54773330688477 168.5122528076172 56.13398361206055 C 166.0978698730469 52.69085693359375 164.0031280517578 49.00285720825195 162.2861175537109 45.172607421875 C 158.7225036621094 37.22135543823242 156.7856292724609 28.74710655212402 156.5291290283203 19.98523139953613 L 156.5149993896484 19.49985694885254 L 156.0293731689453 19.49985694885254 L 62.00012588500977 19.49985694885254 C 55.99412536621094 19.49985694885254 50.1662483215332 20.67648124694824 44.67837524414062 22.99710655212402 C 39.37900161743164 25.23898124694824 34.62012481689453 28.44785690307617 30.53362464904785 32.53435516357422 C 26.44787406921387 36.61898040771484 23.2393741607666 41.37773132324219 20.99724960327148 46.67810821533203 C 18.6766242980957 52.16710662841797 17.5 57.9949836730957 17.5 63.99985504150391 L 17.5 403.000244140625 C 17.5 409.0050964355469 18.6766242980957 414.8329772949219 20.99724960327148 420.3219909667969 C 23.23974990844727 425.6228637695312 26.44824981689453 430.3814697265625 30.53362464904785 434.4659729003906 C 34.62350082397461 438.5548706054688 39.38249969482422 441.7636108398438 44.67837524414062 444.0029907226562 C 50.1662483215332 446.32373046875 55.99412536621094 447.5003662109375 62.00012588500977 447.5003662109375 L 113.8941268920898 447.5003662109375 L 114.292121887207 447.5003662109375 L 114.3813781738281 447.1124877929688 C 116.5662536621094 437.615478515625 118.917121887207 430.2068481445312 121.3686218261719 425.0926208496094 C 121.676628112793 424.4501037597656 121.9706268310547 423.8345947265625 122.2519989013672 423.2451171875 L 122.323127746582 423.0964965820312 C 124.9199981689453 417.6559753417969 126.4875030517578 414.3723449707031 128.2682495117188 412.6091003417969 C 129.8804931640625 411.0127258300781 131.7091217041016 410.5003662109375 135.7938690185547 410.5003662109375 L 162.7128753662109 410.5003662109375 C 166.7976226806641 410.5003662109375 168.6262512207031 411.0127258300781 170.2383728027344 412.6091003417969 C 172.0191192626953 414.3723449707031 173.5866241455078 417.6559753417969 176.1833801269531 423.0959777832031 L 176.2205047607422 423.1736145019531 L 176.2512512207031 423.2379760742188 C 176.5337524414062 423.8296203613281 176.8287506103516 424.4474792480469 177.1380004882812 425.0926208496094 C 179.5893707275391 430.2062377929688 181.9401245117188 437.6148681640625 184.125244140625 447.1124877929688 L 184.2144927978516 447.5003662109375 L 184.6125030517578 447.5003662109375 L 804.8943481445312 447.5003662109375 L 805.2923583984375 447.5003662109375 L 805.3816528320312 447.1124877929688 C 807.566650390625 437.615234375 809.9173583984375 430.2067260742188 812.3687744140625 425.0926208496094 C 812.7030029296875 424.3957214355469 813.0205078125 423.7306213378906 813.3233642578125 423.0959777832031 C 815.9202270507812 417.6559753417969 817.4877319335938 414.3723449707031 819.2684936523438 412.6091003417969 C 820.880615234375 411.0127258300781 822.709228515625 410.5003662109375 826.7940063476562 410.5003662109375 Z M 170.5 8.499981880187988 L 170.5 8.999981880187988 L 170.5 26.99998092651367 C 170.5 33.00610733032227 171.6766204833984 38.83398056030273 173.9973754882812 44.32173156738281 C 176.2378692626953 49.62023162841797 179.4462432861328 54.37923049926758 183.5336303710938 58.46648025512695 C 187.6206207275391 62.55360794067383 192.3796234130859 65.76210784912109 197.6783752441406 68.00285339355469 C 203.16650390625 70.32347869873047 208.9943695068359 71.50010681152344 215.0001220703125 71.50010681152344 L 775 71.50010681152344 C 781.0066528320312 71.50010681152344 786.83447265625 70.32347869873047 792.3216552734375 68.00285339355469 C 797.6202392578125 65.76222991943359 802.3792724609375 62.55373001098633 806.4663696289062 58.46648025512695 C 810.5535278320312 54.37960815429688 813.7620239257812 49.62060546875 816.0027465820312 44.32173156738281 C 818.3233642578125 38.83398056030273 819.5 33.00610733032227 819.5 26.99998092651367 L 819.5 8.999981880187988 L 819.5 8.499981880187988 L 819 8.499981880187988 L 171 8.499981880187988 L 170.5 8.499981880187988 Z" stroke="none"/>
    <path d="M 946 465.000244140625 C 951.8037719726562 465.000244140625 957.4349975585938 463.8634948730469 962.7373657226562 461.6214904785156 C 967.8574829101562 459.4553527832031 972.4562377929688 456.354736328125 976.40576171875 452.4060974121094 C 980.355224609375 448.4557189941406 983.4558715820312 443.8569946289062 985.6211547851562 438.7377319335938 C 987.8632202148438 433.4346008300781 989 427.8033447265625 989 422.0001220703125 L 989 44.00010681152344 C 989 38.19598007202148 987.8632202148438 32.56473159790039 985.6212768554688 27.26260757446289 C 983.4558715820312 22.14235687255859 980.355224609375 17.54360771179199 976.4058837890625 13.59423160552979 C 972.4550170898438 9.644356727600098 967.8562622070312 6.543731689453125 962.7374877929688 4.378856658935547 C 957.4353637695312 2.1368567943573 951.8040161132812 0.9999818205833435 946 0.9999818205833435 L 44.00012588500977 0.9999818205833435 C 38.19687652587891 0.9999818205833435 32.56562423706055 2.1368567943573 27.26275062561035 4.378856658935547 C 22.1411247253418 6.54560661315918 17.5423755645752 9.646106719970703 13.5942497253418 13.59423160552979 C 9.644874572753906 17.54373168945312 6.544374942779541 22.14248275756836 4.378874778747559 27.26248168945312 C 2.136749982833862 32.56585693359375 1 38.19723129272461 1 44.00010681152344 L 1 422.0001220703125 C 1 427.802978515625 2.136749982833862 433.4343566894531 4.378749847412109 438.7376098632812 C 6.543624877929688 443.8571166992188 9.644124984741211 448.4557189941406 13.59412479400635 452.4058532714844 C 17.54375076293945 456.3544921875 22.14249992370605 459.4551086425781 27.26262474060059 461.6214904785156 C 32.56512451171875 463.8634948730469 38.19637680053711 465.000244140625 44.00012588500977 465.000244140625 L 946 465.000244140625 M 840.5001220703125 421.9999694824219 C 845.1801147460938 421.9999694824219 849.578369140625 423.8760986328125 852.884765625 427.2828674316406 C 856.1832275390625 430.6813659667969 857.9998779296875 435.1977233886719 857.9998779296875 440.0001220703125 C 857.9998779296875 444.8026123046875 856.1832275390625 449.3189697265625 852.884765625 452.7174682617188 C 849.578369140625 456.1241149902344 845.1799926757812 458.000244140625 840.5001220703125 458.000244140625 C 835.8202514648438 458.000244140625 831.421875 456.1241149902344 828.115478515625 452.7174682617188 C 824.8170166015625 449.3189697265625 823.00048828125 444.802490234375 823.00048828125 440.0001220703125 C 823.00048828125 435.1977233886719 824.8170166015625 430.6813659667969 828.115478515625 427.2828674316406 C 831.421875 423.8760986328125 835.8201293945312 421.9999694824219 840.5001220703125 421.9999694824219 M 149.4998779296875 421.9999694824219 C 154.1799926757812 421.9999694824219 158.5785064697266 423.8760986328125 161.8848724365234 427.2828674316406 C 165.1837463378906 430.6813659667969 167.0005035400391 435.1977233886719 167.0005035400391 440.0001220703125 C 167.0005035400391 444.8026123046875 165.1837463378906 449.3189697265625 161.8849945068359 452.7174682617188 C 158.578369140625 456.1241149902344 154.1799926757812 458.000244140625 149.4998779296875 458.000244140625 C 144.8200073242188 458.000244140625 140.421630859375 456.1241149902344 137.1152496337891 452.7174682617188 C 133.8167572021484 449.3189697265625 132.000244140625 444.802490234375 132.000244140625 440.0001220703125 C 132.000244140625 435.1977233886719 133.8167572021484 430.6813659667969 137.1152496337891 427.2828674316406 C 140.421630859375 423.8760986328125 144.8198699951172 421.9999694824219 149.4998779296875 421.9999694824219 M 826.7940063476562 411.0003662109375 C 822.864990234375 411.0003662109375 821.1218872070312 411.4776000976562 819.6202392578125 412.9644775390625 C 817.9013671875 414.6663513183594 816.34814453125 417.9203491210938 813.7745971679688 423.3113708496094 C 813.4716186523438 423.9462280273438 813.1539916992188 424.6117248535156 812.8196411132812 425.3087463378906 C 810.38427734375 430.3896179199219 808.045654296875 437.7632446289062 805.868896484375 447.224609375 L 805.6903686523438 448.0003662109375 L 183.8164978027344 448.0003662109375 L 183.6380004882812 447.224609375 C 181.4611206054688 437.7627258300781 179.1224975585938 430.3892211914062 176.6871185302734 425.3088684082031 C 176.3777465820312 424.6634826660156 176.0826263427734 424.0452270507812 175.8001251220703 423.453369140625 L 175.7321319580078 423.3113708496094 C 173.1587524414062 417.9203491210938 171.6053771972656 414.6663513183594 169.8866271972656 412.9644775390625 C 168.3849945068359 411.4776000976562 166.6418762207031 411.0003662109375 162.7128753662109 411.0003662109375 L 135.7938690185547 411.0003662109375 C 131.86474609375 411.0003662109375 130.1216278076172 411.4776000976562 128.6199951171875 412.9644775390625 C 126.901252746582 414.6664733886719 125.3478775024414 417.9204711914062 122.7741241455078 423.3121032714844 L 122.7032470703125 423.4604797363281 C 122.4217529296875 424.0502319335938 122.1276245117188 424.6659851074219 121.8195037841797 425.3087463378906 C 119.3838729858398 430.3898620605469 117.0452499389648 437.7633666992188 114.8686218261719 447.224609375 L 114.6902465820312 448.0003662109375 L 62.00012588500977 448.0003662109375 C 55.92687606811523 448.0003662109375 50.03350067138672 446.8103637695312 44.48362350463867 444.4634704589844 C 39.12825012207031 442.1988525390625 34.31575012207031 438.9542236328125 30.18012428283691 434.8194885253906 C 26.04899978637695 430.6893615722656 22.80450057983398 425.8772277832031 20.53662490844727 420.5166015625 C 18.18987464904785 414.9657287597656 17 409.0723571777344 17 403.000244140625 L 17 63.99985504150391 C 17 57.92773056030273 18.18987464904785 52.03435516357422 20.53675079345703 46.48323059082031 C 22.80400085449219 41.12335586547852 26.04850006103516 36.31123352050781 30.18000030517578 32.18073272705078 C 34.31224822998047 28.04848098754883 39.12462615966797 24.80373191833496 44.48362350463867 22.53660774230957 C 50.03350067138672 20.18973159790039 55.92687606811523 18.99985694885254 62.00012588500977 18.99985694885254 L 157.0005035400391 18.99985694885254 L 157.0290069580078 19.97060775756836 C 157.2834930419922 28.66660690307617 159.2057495117188 37.07698059082031 162.7423706054688 44.96810531616211 C 164.4463806152344 48.76948165893555 166.5253753662109 52.42960739135742 168.921630859375 55.84685516357422 C 171.2972564697266 59.235107421875 174.0095062255859 62.41973114013672 176.9831237792969 65.31260681152344 C 179.9552459716797 68.20410919189453 183.2153778076172 70.82835388183594 186.6730041503906 73.11222839355469 C 190.1640014648438 75.41785430908203 193.8871307373047 77.3966064453125 197.7386322021484 78.99360656738281 C 205.7510070800781 82.31535339355469 214.250244140625 83.99960327148438 223.000244140625 83.99960327148438 L 767.999755859375 83.99960327148438 C 776.749755859375 83.99960327148438 785.2490234375 82.31535339355469 793.2613525390625 78.99360656738281 C 797.11572265625 77.39535522460938 800.8387451171875 75.41660308837891 804.326904296875 73.11235809326172 C 807.7848510742188 70.82810974121094 811.0449829101562 68.203857421875 814.016845703125 65.31260681152344 C 816.9911499023438 62.41910552978516 819.703369140625 59.23435592651367 822.0782470703125 55.84685516357422 C 824.4757690429688 52.4273567199707 826.5547485351562 48.76723098754883 828.2575073242188 44.96810531616211 C 831.7942504882812 37.07810592651367 833.7164916992188 28.66773223876953 833.9708862304688 19.97060775756836 L 833.9993896484375 18.99985694885254 L 928 18.99985694885254 C 934.0732421875 18.99985694885254 939.9666137695312 20.18973159790039 945.5166015625 22.53660774230957 C 950.8753662109375 24.80373191833496 955.6876220703125 28.04848098754883 959.8198852539062 32.18060684204102 C 963.9514770507812 36.31123352050781 967.1959838867188 41.12335586547852 969.4632568359375 46.48348236083984 C 971.8101196289062 52.03410720825195 973 57.92748260498047 973 63.99985504150391 L 973 403.000244140625 C 973 409.0726013183594 971.8101196289062 414.9659729003906 969.4632568359375 420.5167236328125 C 967.1962280273438 425.8764953613281 963.9517211914062 430.6885986328125 959.8200073242188 434.8194885253906 C 955.688232421875 438.9512329101562 950.8758544921875 442.1959838867188 945.5164794921875 444.4634704589844 C 939.9666137695312 446.8103637695312 934.0732421875 448.0003662109375 928 448.0003662109375 L 874.8167724609375 448.0003662109375 L 874.6382446289062 447.224609375 C 872.4613647460938 437.7627258300781 870.1227416992188 430.3892211914062 867.6873779296875 425.3088684082031 C 867.3538818359375 424.6132202148438 867.0369873046875 423.9494934082031 866.7337646484375 423.3138427734375 C 864.1596069335938 417.9218444824219 862.6058959960938 414.667236328125 860.8869018554688 412.96484375 C 859.3851318359375 411.4777221679688 857.641845703125 411.0003662109375 853.7130126953125 411.0003662109375 L 826.7940063476562 411.0003662109375 M 170 7.999981880187988 L 820 7.999981880187988 L 820 26.99998092651367 C 820 33.07335662841797 818.8101196289062 38.96673202514648 816.4632568359375 44.51648330688477 C 814.1973876953125 49.87485504150391 810.952880859375 54.68735504150391 806.8200073242188 58.82010650634766 C 802.68701171875 62.95310592651367 797.87451171875 66.19760894775391 792.516357421875 68.46335601806641 C 786.9672241210938 70.81023406982422 781.0738525390625 72.00010681152344 775 72.00010681152344 L 215.0001220703125 72.00010681152344 C 208.9271240234375 72.00010681152344 203.0337524414062 70.81023406982422 197.4836273193359 68.46335601806641 C 192.1253814697266 66.19747924804688 187.3128814697266 62.95298004150391 183.1799926757812 58.82010650634766 C 179.0469970703125 54.68710708618164 175.8025054931641 49.87460708618164 173.5368804931641 44.51648330688477 C 171.1900024414062 38.96673202514648 170 33.07335662841797 170 26.99998092651367 L 170 7.999981880187988 M 946 466.000244140625 L 44.00012588500977 466.000244140625 C 38.06187438964844 466.000244140625 32.29949951171875 464.8368530273438 26.87312507629395 462.54248046875 C 21.63337516784668 460.3254699707031 16.92787551879883 457.1528625488281 12.88712501525879 453.1130981445312 C 8.845749855041504 449.0715942382812 5.67312479019165 444.3661193847656 3.457750082015991 439.1271057128906 C 1.163375020027161 433.6998596191406 0 427.9374694824219 0 422.0001220703125 L 0 44.00010681152344 C 0 38.0627326965332 1.163375020027161 32.30035781860352 3.457750082015991 26.87310600280762 C 5.673874855041504 21.63335609436035 8.846500396728516 16.9278564453125 12.88712501525879 12.88710689544678 C 16.92675018310547 8.847481727600098 21.63237571716309 5.674981594085693 26.87312507629395 3.457856893539429 C 32.30012512207031 1.163356781005859 38.0625 -1.81884770427132e-05 44.00012588500977 -1.81884770427132e-05 L 946 -1.81884770427132e-05 C 951.9384765625 -1.81884770427132e-05 957.7008666992188 1.163356781005859 963.1270141601562 3.457856893539429 C 968.3651123046875 5.673231601715088 973.0706176757812 8.845731735229492 977.1128540039062 12.88710689544678 C 981.1538696289062 16.92798233032227 984.3263549804688 21.63348197937012 986.542236328125 26.87310600280762 C 988.8366088867188 32.29910659790039 990 38.06148147583008 990 44.00010681152344 L 990 422.0001220703125 C 990 427.9378662109375 988.8366088867188 433.7002258300781 986.542236328125 439.1271057128906 C 984.3263549804688 444.3658447265625 981.1538696289062 449.0713500976562 977.1128540039062 453.1130981445312 C 973.0718994140625 457.1533508300781 968.3663940429688 460.3258666992188 963.1270141601562 462.54248046875 C 957.7006225585938 464.8368530273438 951.938232421875 466.000244140625 946 466.000244140625 Z M 840.5001220703125 422.9999694824219 C 836.093017578125 422.9999694824219 831.9495239257812 424.7683715820312 828.8331298828125 427.9793701171875 C 825.7167358398438 431.1902465820312 824.00048828125 435.4593505859375 824.00048828125 440.0001220703125 C 824.00048828125 444.5409851074219 825.7167358398438 448.8101196289062 828.8331298828125 452.02099609375 C 831.9495239257812 455.2318420410156 836.0928955078125 457.000244140625 840.5001220703125 457.000244140625 C 844.9073486328125 457.000244140625 849.0507202148438 455.2318420410156 852.1671142578125 452.02099609375 C 855.2836303710938 448.8101196289062 856.9998779296875 444.5409851074219 856.9998779296875 440.0001220703125 C 856.9998779296875 435.459228515625 855.2836303710938 431.1902465820312 852.1671142578125 427.9793701171875 C 849.0507202148438 424.7683715820312 844.9072265625 422.9999694824219 840.5001220703125 422.9999694824219 Z M 149.4998779296875 422.9999694824219 C 145.0927429199219 422.9999694824219 140.9492492675781 424.7683715820312 137.8328704833984 427.9793701171875 C 134.7165069580078 431.1902465820312 133.000244140625 435.4593505859375 133.000244140625 440.0001220703125 C 133.000244140625 444.5409851074219 134.7165069580078 448.8101196289062 137.8328704833984 452.02099609375 C 140.9492492675781 455.2318420410156 145.0926208496094 457.000244140625 149.4998779296875 457.000244140625 C 153.9072570800781 457.000244140625 158.0508728027344 455.2318420410156 161.1673736572266 452.02099609375 C 164.2841186523438 448.8101196289062 166.0005035400391 444.5409851074219 166.0005035400391 440.0001220703125 C 166.0005035400391 435.459228515625 164.2841186523438 431.1902465820312 161.1673736572266 427.9793701171875 C 158.0508728027344 424.7683715820312 153.9072570800781 422.9999694824219 149.4998779296875 422.9999694824219 Z M 826.7940063476562 410.0003662109375 L 853.7130126953125 410.0003662109375 C 861.4862670898438 410.0003662109375 862.3054809570312 411.7167358398438 867.6363525390625 422.8836059570312 C 867.9392700195312 423.5182189941406 868.255859375 424.1814880371094 868.589111328125 424.8764953613281 C 871.0565185546875 430.0236206054688 873.4194946289062 437.4671020507812 875.6127319335938 447.0003662109375 L 928 447.0003662109375 C 933.9385986328125 447.0003662109375 939.7009887695312 445.8369750976562 945.1270141601562 443.54248046875 C 950.3668823242188 441.3254699707031 955.072509765625 438.1527404785156 959.1128540039062 434.1123657226562 C 963.1532592773438 430.0728454589844 966.3257446289062 425.3674926757812 968.542236328125 420.1272277832031 C 970.8366088867188 414.7004699707031 972 408.9381103515625 972 403.000244140625 L 972 63.99985504150391 C 972 58.06198120117188 970.8366088867188 52.29960632324219 968.542236328125 46.87285614013672 C 966.3255004882812 41.63235855102539 963.1531372070312 36.92710494995117 959.1128540039062 32.88785552978516 C 955.072021484375 28.84698104858398 950.3665161132812 25.67423248291016 945.1270141601562 23.45760726928711 C 939.7011108398438 21.16323089599609 933.938720703125 19.99985694885254 928 19.99985694885254 L 834.9705200195312 19.99985694885254 C 834.7122802734375 28.8291072845459 832.7603759765625 37.36760711669922 829.1699829101562 45.37710571289062 C 827.4415283203125 49.23360824584961 825.3309936523438 52.94935607910156 822.89697265625 56.42098236083984 C 820.4862670898438 59.8596076965332 817.733154296875 63.09235763549805 814.7142333984375 66.02935791015625 C 811.69775390625 68.96398162841797 808.3883666992188 71.62785339355469 804.8781127929688 73.94673156738281 C 801.3370971679688 76.28585815429688 797.5574951171875 78.29473114013672 793.6443481445312 79.9173583984375 C 785.5098876953125 83.28973388671875 776.8817749023438 84.99960327148438 767.999755859375 84.99960327148438 L 223.000244140625 84.99960327148438 C 214.1182556152344 84.99960327148438 205.4901275634766 83.28973388671875 197.3556213378906 79.9173583984375 C 193.4450073242188 78.29586029052734 189.6654968261719 76.28697967529297 186.1218719482422 73.94673156738281 C 182.6118774414062 71.62810516357422 179.3025054931641 68.9642333984375 176.2857513427734 66.02935791015625 C 173.2673797607422 63.09298324584961 170.5142517089844 59.86023330688477 168.1028747558594 56.42098236083984 C 165.6701202392578 52.95173263549805 163.5596313476562 49.23598098754883 161.8298797607422 45.37710571289062 C 158.2393798828125 37.3658561706543 156.2877502441406 28.82773208618164 156.0293731689453 19.99985694885254 L 62.00012588500977 19.99985694885254 C 56.06137466430664 19.99985694885254 50.29899978637695 21.16323089599609 44.87312316894531 23.45760726928711 C 39.63362503051758 25.67423248291016 34.92800140380859 28.84698104858398 30.88712501525879 32.88785552978516 C 26.84687423706055 36.92710494995117 23.67449951171875 41.63235855102539 21.45775032043457 46.87285614013672 C 19.16337585449219 52.29985809326172 18 58.06223297119141 18 63.99985504150391 L 18 403.000244140625 C 18 408.9378662109375 19.16337585449219 414.7002258300781 21.45775032043457 420.1272277832031 C 23.67499923706055 425.3682250976562 26.84749984741211 430.0736083984375 30.88712501525879 434.1123657226562 C 34.93125152587891 438.1554870605469 39.63674926757812 441.3282470703125 44.87312316894531 443.54248046875 C 50.29912567138672 445.8369750976562 56.06150054931641 447.0003662109375 62.00012588500977 447.0003662109375 L 113.8941268920898 447.0003662109375 C 116.0875015258789 437.4662170410156 118.4509963989258 430.0224914550781 120.9177474975586 424.8764953613281 C 121.2256240844727 424.2342224121094 121.5195007324219 423.6189880371094 121.8007507324219 423.0297241210938 L 121.8720016479492 422.8807373046875 C 127.2013778686523 411.7162170410156 128.0204925537109 410.0003662109375 135.7938690185547 410.0003662109375 L 162.7128753662109 410.0003662109375 C 170.4861297607422 410.0003662109375 171.3052520751953 411.7162170410156 176.6346282958984 422.880615234375 L 176.6714935302734 422.9576110839844 C 176.9632568359375 423.5687255859375 177.2683715820312 424.2079772949219 177.5888824462891 424.8764953613281 C 180.0562438964844 430.0236206054688 182.4192504882812 437.4671020507812 184.6125030517578 447.0003662109375 L 804.8943481445312 447.0003662109375 C 807.0877685546875 437.4666137695312 809.4511108398438 430.0227355957031 811.9178466796875 424.8764953613281 C 812.2520141601562 424.1798706054688 812.5693969726562 423.5149841308594 812.8721313476562 422.880615234375 C 818.2015991210938 411.7162170410156 819.020751953125 410.0003662109375 826.7940063476562 410.0003662109375 Z M 171 8.999981880187988 L 171 26.99998092651367 C 171 32.9387321472168 172.1633758544922 38.70110702514648 174.4578704833984 44.12698364257812 C 176.6732482910156 49.36610794067383 179.8457489013672 54.07160568237305 183.8871307373047 58.11298370361328 C 187.9284973144531 62.15435791015625 192.6341247558594 65.32685852050781 197.8731231689453 67.5423583984375 C 203.2992553710938 69.83673095703125 209.0616302490234 71.00010681152344 215.0001220703125 71.00010681152344 L 775 71.00010681152344 C 780.9395141601562 71.00010681152344 786.7017211914062 69.83673095703125 792.1268920898438 67.5423583984375 C 797.36572265625 65.32698059082031 802.0713500976562 62.15447998046875 806.1128540039062 58.11298370361328 C 810.1542358398438 54.07173156738281 813.3267211914062 49.36610794067383 815.542236328125 44.12698364257812 C 817.8366088867188 38.70123291015625 819 32.93885803222656 819 26.99998092651367 L 819 8.999981880187988 L 171 8.999981880187988 Z" stroke="none" fill="#000"/>
  </g>
</svg>
