<svg xmlns="http://www.w3.org/2000/svg" width="990" height="466" viewBox="0 0 990 466">
  <path id="Subtraction_3" data-name="Subtraction 3" d="M946,466H44A43.963,43.963,0,0,1,0,422V44A43.964,43.964,0,0,1,44,0H946a43.963,43.963,0,0,1,44,44V422a43.963,43.963,0,0,1-44,44ZM840.5,423a16.151,16.151,0,0,0-11.667,4.979,17.367,17.367,0,0,0,0,24.042,16.158,16.158,0,0,0,23.334,0,17.366,17.366,0,0,0,0-24.042A16.151,16.151,0,0,0,840.5,423Zm-691,0a16.151,16.151,0,0,0-11.667,4.979,17.367,17.367,0,0,0,0,24.042,16.159,16.159,0,0,0,23.335,0,17.365,17.365,0,0,0,0-24.042A16.152,16.152,0,0,0,149.5,423Zm677.294-13h26.919c7.773,0,8.592,1.716,13.923,12.883q.454.952.953,1.993c2.467,5.147,4.83,12.591,7.024,22.124H928a43.963,43.963,0,0,0,44-44V64a43.963,43.963,0,0,0-44-44H834.971a66.478,66.478,0,0,1-5.8,25.377A67.066,67.066,0,0,1,822.9,56.421a67.382,67.382,0,0,1-18.019,17.526,66.974,66.974,0,0,1-11.234,5.971A66.619,66.619,0,0,1,768,85H223a66.619,66.619,0,0,1-25.645-5.082,67.009,67.009,0,0,1-11.234-5.971A67.385,67.385,0,0,1,168.1,56.421a67.056,67.056,0,0,1-6.273-11.044A66.492,66.492,0,0,1,156.029,20H62A43.963,43.963,0,0,0,18,64V403a43.964,43.964,0,0,0,44,44h51.894c2.193-9.534,4.557-16.978,7.024-22.124q.462-.963.883-1.847l.071-.149C127.2,411.716,128.02,410,135.794,410h26.919c7.773,0,8.592,1.716,13.922,12.88l.037.077q.438.917.917,1.919c2.467,5.147,4.83,12.591,7.024,22.124H804.894c2.193-9.534,4.557-16.978,7.023-22.124q.5-1.045.954-2C818.2,411.716,819.021,410,826.794,410ZM171,9V27a43.963,43.963,0,0,0,44,44H775a43.963,43.963,0,0,0,44-44V9Z" transform="translate(0 0)" fill="#fff"/>
</svg>
